<?xml version="1.0" encoding="UTF-8" standalone="no"?>
<!DOCTYPE svg PUBLIC "-//W3C//DTD SVG 1.1//EN" "http://www.w3.org/Graphics/SVG/1.1/DTD/svg11.dtd">
<svg width="100%" height="100%" viewBox="0 0 2439 767" version="1.1" xmlns="http://www.w3.org/2000/svg" xmlns:xlink="http://www.w3.org/1999/xlink" xml:space="preserve" xmlns:serif="http://www.serif.com/" style="fill-rule:evenodd;clip-rule:evenodd;stroke-linejoin:round;stroke-miterlimit:2;">
    <g id="Mesa-de-trabajo1" serif:id="Mesa de trabajo1" transform="matrix(1.520574,0,0,1,-389.266833,-867)">
        <rect x="256" y="867" width="1604" height="767" style="fill:none;"/>
        <clipPath id="_clip1">
            <rect x="256" y="867" width="1604" height="767"/>
        </clipPath>
        <g clip-path="url(#_clip1)">
            <g transform="matrix(8.529521,0,0,4.067318,236.928249,857)">
                <rect x="0" y="0" width="192.756" height="192.756" style="fill:white;"/>
            </g>
            <g transform="matrix(8.529521,0,0,12.969765,236.928249,0)">
                <path d="M33.639,77.573C39.145,77.573 44.614,76.906 49.896,75.571L50.563,75.404L51.063,75.867C54.844,79.37 57.439,83.893 58.588,88.954L58.736,89.621L58.254,90.121C50.618,98 45.02,107.73 42.073,118.223L41.888,118.891L41.221,119.094C38.764,119.847 36.208,120.228 33.638,120.225C31.08,120.225 28.523,119.836 26.039,119.057L25.39,118.854L25.205,118.206C22.239,107.73 16.641,98.02 8.986,90.122L8.504,89.622L8.653,88.955C9.802,83.913 12.433,79.372 16.252,75.831L16.753,75.368L17.42,75.535C22.833,76.887 28.282,77.573 33.639,77.573Z" style="fill:rgb(18,49,100);"/>
            </g>
            <g transform="matrix(8.529521,0,0,12.969765,236.928249,0)">
                <path d="M11.544,94.626C11.544,88.713 13.842,83.171 18.013,79.001C22.184,74.831 27.726,72.531 33.621,72.531C39.534,72.531 45.077,74.83 49.247,79.001C53.418,83.171 55.716,88.713 55.716,94.626C55.716,106.787 45.799,116.703 33.621,116.703C27.726,116.703 22.184,114.404 18.013,110.234C13.842,106.062 11.544,100.521 11.544,94.626Z" style="fill:rgb(18,49,100);"/>
            </g>
            <g transform="matrix(8.529521,0,0,12.969765,236.928249,0)">
                <path d="M17.305,77.528C15.674,79.087 14.272,80.869 13.142,82.822C12.022,84.759 11.185,86.847 10.659,89.022C14.478,93.008 17.804,97.439 20.566,102.219C23.306,106.966 25.459,112.028 26.977,117.295C27.993,117.592 29.043,117.828 30.122,117.994C31.268,118.17 32.442,118.265 33.639,118.265C34.859,118.265 36.049,118.175 37.206,118.003C38.246,117.848 39.274,117.623 40.283,117.329C41.804,112.048 43.959,106.97 46.701,102.206C49.453,97.43 52.771,93.003 56.582,89.02C55.528,84.653 53.247,80.677 50.009,77.563C44.652,78.882 39.156,79.548 33.639,79.549C30.76,79.549 27.921,79.356 25.125,78.994C22.493,78.654 19.882,78.164 17.305,77.528ZM11.935,82.122C13.198,79.94 14.78,77.96 16.63,76.247L16.909,75.988L17.274,76.08C19.917,76.749 22.597,77.261 25.3,77.614C28.014,77.966 30.792,78.152 33.639,78.152C39.17,78.153 44.679,77.47 50.042,76.117L50.408,76.024L50.687,76.284C54.367,79.712 56.926,84.173 58.028,89.08L58.111,89.447L57.849,89.717C54.008,93.689 50.671,98.119 47.914,102.907C45.165,107.681 43.018,112.777 41.522,118.079L41.419,118.444L41.055,118.557C39.863,118.926 38.644,119.203 37.409,119.387C36.179,119.571 34.921,119.664 33.639,119.664C32.374,119.664 31.129,119.564 29.914,119.377C28.659,119.182 27.419,118.896 26.206,118.52L25.841,118.407L25.738,118.042C24.246,112.755 22.101,107.675 19.353,102.919C16.586,98.127 13.24,93.693 9.391,89.717L9.131,89.447L9.214,89.08C9.763,86.636 10.68,84.29 11.935,82.122Z" style="fill:rgb(219,220,221);fill-rule:nonzero;"/>
            </g>
            <g transform="matrix(8.529521,0,0,12.969765,236.928249,0)">
                <path d="M12.104,94.626C12.096,88.918 14.366,83.436 18.406,79.403C22.433,75.359 27.913,73.087 33.62,73.092C39.568,73.092 44.952,75.501 48.849,79.398C52.746,83.295 55.155,88.678 55.155,94.626C55.161,100.333 52.888,105.813 48.844,109.84C44.812,113.881 39.329,116.151 33.62,116.143C27.914,116.149 22.436,113.878 18.407,109.838C14.367,105.809 12.097,100.331 12.104,94.626ZM19.395,80.386C15.618,84.159 13.496,89.287 13.504,94.626C13.497,99.961 15.62,105.083 19.397,108.85C23.164,112.627 28.286,114.749 33.62,114.743C38.959,114.751 44.086,112.63 47.859,108.852C51.638,105.085 53.762,99.962 53.755,94.626C53.763,89.286 51.639,84.158 47.859,80.387C44.088,76.607 38.96,74.484 33.62,74.491C28.285,74.484 23.161,76.607 19.395,80.386Z" style="fill:rgb(219,220,221);fill-rule:nonzero;"/>
            </g>
            <g transform="matrix(8.529521,0,0,12.969765,236.928249,0)">
                <path d="M26.307,93.561C26.974,93.424 27.666,93.471 28.308,93.696C28.919,93.914 29.446,94.32 29.812,94.856L30.151,95.651L29.358,95.36C28.18,94.723 26.993,95.075 25.827,95.422C24.345,95.862 22.891,96.294 21.375,95.012C21.067,94.794 20.813,94.464 20.612,94.127C20.445,93.842 20.299,93.545 20.174,93.239L19.686,92.066L20.705,92.824C20.711,92.829 22.816,94.448 26.288,93.563L26.307,93.561Z" style="fill:rgb(219,220,221);fill-rule:nonzero;"/>
            </g>
            <g transform="matrix(8.529521,0,0,12.969765,236.928249,0)">
                <path d="M33.157,87.768C31.674,87.768 30.302,88.046 29.765,88.806C29.765,88.806 29.171,89.362 29.06,89.844C29.06,89.844 25.261,87.267 24.074,92.865C24.074,92.865 26.373,91.215 27.689,92.29C27.689,92.29 28.356,93.236 29.58,93.55C31.248,93.996 31.063,94.329 31.137,94.681C31.137,94.681 30.915,95.2 29.469,96.108C28.042,97.034 27.226,96.589 25.91,96.164C25.91,96.164 25.818,98.11 28.431,98.073C28.431,98.073 28.858,98.11 29.376,98.055C29.376,98.055 26.243,99.369 27.43,102.596C27.43,102.596 28.505,101.297 29.692,101C29.692,101 26.299,104.855 30.786,108.619C30.786,108.619 30.786,105.172 32.065,104.115C32.065,104.115 32.769,106.857 32.546,108.359C32.546,108.359 32.49,109.675 32.082,110.361C32.082,110.361 37.402,110.25 35.882,103.855C35.882,103.855 38.014,104.578 37.569,107.488C37.569,107.488 42.351,105.097 39.2,100.185C39.2,100.185 40.998,100.185 41.554,102.335C41.554,102.335 44.112,98.386 39.886,94.623C39.886,94.623 41.48,94.234 42.351,95.55C42.351,95.55 42.24,92.547 39.404,91.083C38.756,90.73 39.775,89.692 39.515,89.118L33.157,87.768Z" style="fill:rgb(176,24,66);"/>
            </g>
            <g transform="matrix(8.529521,0,0,12.969765,236.928249,0)">
                <path d="M36.457,90.066C36.457,90.066 38.181,87.878 40.757,88.175C40.757,88.175 40.035,91.401 37.198,91.994L36.457,90.066Z" style="fill:rgb(176,24,66);"/>
            </g>
            <g transform="matrix(8.529521,0,0,12.969765,236.928249,0)">
                <path d="M37.291,90.382C37.291,90.382 38.273,89.418 39.46,89.214C39.46,89.214 38.867,90.605 37.514,90.882L37.291,90.382ZM32.211,93.495C31.897,93.274 31.488,93.181 31.154,93.347C32.174,93.384 32.341,94.83 33.453,94.534C33.657,94.478 33.842,94.386 34.009,94.274C33.287,94.57 32.693,93.903 32.211,93.495ZM38.011,97.633C37.884,97.035 37.68,96.584 37.394,96.229C37.026,95.773 36.521,95.478 35.863,95.238C36.009,95.877 36.184,96.514 36.189,97.174C36.193,97.789 36.06,98.32 35.789,98.76C35.611,99.042 35.376,99.285 35.101,99.473C35.331,98.862 35.346,98.342 35.272,97.928C35.135,97.157 34.694,96.754 34.194,96.221C34.173,96.696 34.18,97.182 34.061,97.647C33.908,98.235 33.615,98.592 33.315,98.809C33.531,98.145 33.376,97.52 33.212,97.204L32.582,97.538C32.592,97.567 32.874,98.136 32.556,98.786C32.344,99.218 31.916,99.556 31.581,99.891C32.856,99.815 34.012,99.68 34.606,98.256C34.665,99.209 34.082,99.971 33.564,100.707C34.704,100.478 35.661,100.248 36.363,99.148C36.801,98.47 36.96,97.646 36.863,96.668C37.52,97.551 37.438,98.699 37.438,99.742C38.303,98.693 38.947,97.705 38.937,96.232C38.93,95.253 38.578,94.116 37.457,92.995L37.216,93.737C38.48,95.341 38.332,96.758 38.011,97.633Z" style="fill:rgb(219,220,221);"/>
            </g>
            <g transform="matrix(8.529521,0,0,12.969765,236.928249,0)">
                <path d="M27.92,94.302C27.443,94.166 26.94,94.146 26.453,94.243C24.145,94.83 22.365,94.387 21.325,93.949C21.461,94.15 21.617,94.331 21.788,94.449L21.805,94.461L21.816,94.469C23.05,95.518 24.328,95.138 25.631,94.751C26.381,94.53 27.139,94.305 27.92,94.302Z" style="fill:rgb(176,24,66);fill-rule:nonzero;"/>
            </g>
            <g transform="matrix(8.529521,0,0,12.969765,236.928249,0)">
                <path d="M34.361,85.84C34.807,86.581 35.529,87.564 36.438,87.564C37.364,87.564 37.921,87.156 38.366,86.415C38.106,86.452 38.033,86.452 37.773,86.378C37.198,86.173 36.92,85.599 37.031,84.858C37.217,84.21 37.865,83.838 38.496,84.024C38.718,84.098 38.904,84.21 39.034,84.357C38.877,84.068 38.837,83.73 38.922,83.412C39.107,82.764 39.867,82.244 40.535,82.355L37.94,88.75L29.376,88.75L26.763,82.651C27.412,82.54 28.172,83.059 28.357,83.708C28.45,84.022 28.394,84.264 28.246,84.523C28.376,84.375 28.58,84.097 28.784,84.023C29.414,83.838 30.137,84.394 30.323,85.024C30.434,85.765 30.193,86.228 29.618,86.432C29.358,86.489 29.136,86.451 28.877,86.414C29.322,87.155 29.989,87.563 30.916,87.563C31.824,87.563 32.491,86.581 32.937,85.839C32.732,85.986 32.485,86.064 32.232,86.061C32.232,86.061 32.232,86.061 32.232,86.061C31.581,86.061 31.045,85.525 31.045,84.874C31.045,84.868 31.045,84.862 31.045,84.856C31.045,84.188 31.565,83.632 32.232,83.632C32.436,83.632 32.659,83.688 32.825,83.799C32.592,83.569 32.459,83.256 32.454,82.928C32.451,82.273 32.985,81.731 33.64,81.723C34.307,81.723 34.845,82.261 34.845,82.928C34.845,83.261 34.678,83.595 34.456,83.818C34.642,83.707 34.845,83.632 35.067,83.632C35.735,83.632 36.254,84.188 36.254,84.856C36.254,85.523 35.735,86.061 35.067,86.061C34.807,86.062 34.361,85.84 34.361,85.84Z" style="fill:rgb(216,177,70);"/>
            </g>
            <g transform="matrix(8.529521,0,0,12.969765,236.928249,0)">
                <path d="M31.534,90.344C31.408,90.334 31.281,90.333 31.155,90.343C31.144,90.688 30.852,90.964 30.507,90.956C30.202,90.963 29.93,90.755 29.857,90.459C29.737,90.446 29.619,90.423 29.504,90.389C29.586,90.771 29.8,91.224 30.347,91.327C30.349,91.328 31.119,91.491 31.449,90.548L31.45,90.544C31.475,90.47 31.503,90.404 31.534,90.344ZM30.299,88.752C30.204,88.824 30.12,88.911 30.05,89.008L30.031,89.035L30.006,89.059C30.005,89.06 29.682,89.364 29.504,89.676C29.683,89.772 30.055,89.881 30.702,89.719L30.728,89.713C31.58,89.569 32.113,89.76 32.368,89.899C32.73,90.009 33.035,90.356 33.037,90.357L32.534,90.813C32.533,90.812 32.204,90.442 32.085,90.774L32.084,90.774C31.56,92.273 30.225,91.993 30.221,91.992C29.031,91.768 28.814,90.627 28.78,90.079C28.278,89.783 25.744,88.504 24.622,92.135C25.484,91.697 26.907,91.201 27.909,92.019L27.948,92.052L27.971,92.084C27.973,92.086 28.568,92.929 29.665,93.212L29.667,93.213C31.361,93.665 31.413,94.087 31.463,94.512C31.467,94.55 31.472,94.588 31.477,94.611L31.5,94.718L31.457,94.818C31.457,94.82 31.191,95.438 29.654,96.404C28.301,97.281 27.461,97.054 26.355,96.683C26.532,97.14 27.029,97.744 28.426,97.724L28.45,97.724C28.451,97.724 28.862,97.759 29.338,97.708L31.636,97.462L29.513,98.376C29.506,98.38 27.05,99.411 27.593,101.917C28.042,101.481 28.794,100.866 29.606,100.663L30.668,100.397L29.956,101.229C29.948,101.239 27.083,104.495 30.469,107.86C30.552,106.737 30.839,104.674 31.841,103.846L32.264,103.496L32.402,104.027C32.404,104.035 33.116,106.808 32.896,108.382C32.891,108.48 32.847,109.257 32.637,109.941C33.88,109.701 36.66,108.636 35.543,103.935L35.394,103.308L36,103.527C36.006,103.529 38.036,104.218 37.979,106.82C39.073,106.025 41.168,103.902 38.906,100.377L38.554,99.828L39.203,99.838C39.209,99.838 40.785,99.838 41.597,101.453C42.079,100.217 42.608,97.517 39.653,94.887L39.152,94.442L39.804,94.286C39.808,94.285 40.868,94.026 41.819,94.576C41.55,93.635 40.884,92.243 39.243,91.396L39.237,91.392C39.23,91.388 39.222,91.384 39.215,91.38C38.657,91.858 37.987,92.187 37.268,92.337L37.126,91.652C38.704,91.322 40.031,89.434 40.296,88.498C38.146,88.485 36.731,90.28 36.727,90.285L36.183,89.847C36.189,89.84 38.026,87.509 40.795,87.828L41.186,87.873L41.096,88.255C41.095,88.261 40.776,89.684 39.735,90.868C42.586,92.456 42.699,95.527 42.7,95.536L42.764,96.81L42.059,95.745C41.683,95.177 41.144,94.986 40.708,94.935C44.312,98.718 41.856,102.511 41.848,102.523L41.417,103.207L41.215,102.426C40.95,101.399 40.379,100.932 39.91,100.717C42.386,105.473 37.74,107.795 37.726,107.803L37.118,108.114L37.221,107.438C37.464,105.85 36.88,104.995 36.38,104.565C37.388,110.602 32.108,110.713 32.091,110.713L31.453,110.734L31.78,110.185C32.142,109.576 32.194,108.353 32.194,108.349L32.194,108.335L32.197,108.31C32.343,107.328 32.067,105.771 31.88,104.882C31.133,106.159 31.132,108.612 31.132,108.622L31.127,109.364L30.558,108.887C27.297,106.153 27.968,103.362 28.716,101.871C28.341,102.149 27.999,102.467 27.694,102.82L27.307,103.279L27.099,102.715C26.301,100.545 27.282,99.164 28.162,98.42C25.454,98.322 25.556,96.156 25.557,96.149L25.575,95.689L26.013,95.831C26.184,95.887 26.305,95.928 26.423,95.968C27.422,96.307 28.142,96.551 29.275,95.815L29.279,95.813C30.314,95.163 30.662,94.766 30.769,94.614L30.766,94.593C30.744,94.405 30.721,94.217 29.49,93.888C28.29,93.579 27.576,92.721 27.43,92.533C26.314,91.685 24.277,93.145 24.271,93.149L23.544,93.66L23.729,92.792C24.406,89.594 25.885,88.855 27.142,88.877C27.756,88.888 28.349,89.08 28.897,89.344C29.021,89.134 29.164,88.935 29.324,88.751L30.299,88.751L30.299,88.752Z" style="fill:rgb(219,220,221);fill-rule:nonzero;"/>
            </g>
            <g transform="matrix(8.529521,0,0,12.969765,236.928249,0)">
                <path d="M176.684,87.166L165.934,87.166L160.301,101.079L160.319,87.149L153.087,87.149L153.087,105.841L165.739,105.841L166.876,102.997L175.901,102.997L177.2,105.841L184.253,105.841L176.684,87.166ZM144.611,97.205L136.97,87.148L127.802,87.148L127.802,101.025L122.046,87.165L111.439,87.165L106.996,98.271L100.369,98.271C99.818,100.597 98.557,101.628 96.264,101.628C93.635,101.628 91.858,99.673 91.858,96.759C91.858,92.975 93.35,91.02 96.211,91.02C98.557,91.02 99.889,92.069 100.297,94.254L107.815,94.254L107.833,93.969C107.833,89.456 103.267,86.49 96.319,86.49C88.892,86.49 85.374,89.386 84.769,96.031C83.704,94.876 81.962,93.97 80.647,93.864L77.839,93.615L73.699,93.544C71.923,93.508 70.909,92.886 70.909,91.838C70.909,90.648 71.94,89.99 73.823,89.99C75.99,89.99 76.861,90.789 76.861,92.761L84.768,92.761L84.768,92.512C84.768,88.657 81.037,86.524 74.268,86.524C66.752,86.524 63.074,88.585 63.074,92.76C63.074,96.332 65.775,98.25 70.945,98.392L74.019,98.464C76.276,98.534 77.289,99.085 77.289,100.276C77.289,101.288 75.867,102.247 74.393,102.247C71.816,102.247 70.466,101.358 70.466,99.688L62.275,99.688L62.275,99.866C62.275,103.917 66.362,106.137 73.789,106.137C80.95,106.137 84.468,104.575 85.605,100.862C87.897,104.77 90.882,106.192 96.692,106.192C100.388,106.192 102.306,105.676 104.706,103.934L103.94,105.836L110.924,105.836L112.203,102.922L121.371,102.922L122.598,105.801L134.573,105.801L134.573,94.731L143.085,105.836L151.56,105.836L151.56,87.166L144.613,87.166L144.613,97.205L144.611,97.205ZM168.812,98.307L171.281,92.123L174.088,98.272L168.812,98.307ZM114.121,98.307L116.609,91.928L119.451,98.307L114.121,98.307Z" style="fill:rgb(18,49,100);"/>
            </g>
        </g>
    </g>
</svg>
